<svg xmlns="http://www.w3.org/2000/svg" viewBox="0 0 128 220" role="img" aria-label="stage 3 sprout">
  <defs>
    <radialGradient id="stage3Glow" cx="51%" cy="61%" r="58%">
      <stop offset="0%" stop-color="#f5ff8f" stop-opacity=".55"/>
      <stop offset="100%" stop-color="#f5ff8f" stop-opacity="0"/>
    </radialGradient>
    <linearGradient id="stage3Stem" x1="0" y1="0" x2="0" y2="1">
      <stop offset="0%" stop-color="#e9ff7b"/>
      <stop offset="100%" stop-color="#3d8c3f"/>
    </linearGradient>
    <linearGradient id="stage3Leaf" x1="0" y1="0" x2="1" y2="1">
      <stop offset="0%" stop-color="#feff96"/>
      <stop offset="52%" stop-color="#addd55"/>
      <stop offset="100%" stop-color="#529b41"/>
    </linearGradient>
    <filter id="stage3SoftGlow" x="-40%" y="-40%" width="180%" height="180%">
      <feGaussianBlur stdDeviation="2.8" result="blur"/>
      <feMerge>
        <feMergeNode in="blur"/>
        <feMergeNode in="SourceGraphic"/>
      </feMerge>
    </filter>
  </defs>
  <ellipse cx="64" cy="132" rx="61" ry="76" fill="url(#stage3Glow)"/>
  <path d="M54 202 C54 160 58 113 70 48" fill="none" stroke="#2d7736" stroke-width="15" stroke-linecap="round"/>
  <path d="M65 202 C63 158 66 112 78 48" fill="none" stroke="url(#stage3Stem)" stroke-width="8" stroke-linecap="round"/>
  <path d="M72 74 C39 44 12 46 4 71 C25 91 55 94 72 74Z" fill="url(#stage3Leaf)" stroke="#edff82" stroke-width="3"/>
  <path d="M79 69 C98 35 126 36 123 62 C101 84 87 85 79 69Z" fill="url(#stage3Leaf)" stroke="#edff82" stroke-width="3"/>
  <path d="M62 124 C34 102 8 107 7 132 C31 149 53 146 62 124Z" fill="url(#stage3Leaf)" stroke="#e8ff80" stroke-width="3"/>
  <path d="M76 119 C101 95 125 100 126 126 C104 145 84 143 76 119Z" fill="url(#stage3Leaf)" stroke="#e8ff80" stroke-width="3"/>
  <path d="M68 39 C50 18 35 21 33 38 C47 51 60 52 68 39Z" fill="url(#stage3Leaf)" stroke="#f2ff8a" stroke-width="2.4"/>
  <path d="M73 102 C52 83 32 85 29 104 C48 118 64 117 73 102Z" fill="url(#stage3Leaf)" stroke="#e8ff80" stroke-width="2.4"/>
  <path d="M82 100 C99 82 116 84 116 103 C101 118 89 116 82 100Z" fill="url(#stage3Leaf)" stroke="#e8ff80" stroke-width="2.4"/>
  <path d="M21 72 C39 66 55 68 70 75" fill="none" stroke="#69a946" stroke-width="2.5" stroke-linecap="round" opacity=".72"/>
  <path d="M88 69 C101 62 112 61 122 63" fill="none" stroke="#69a946" stroke-width="2.5" stroke-linecap="round" opacity=".72"/>
  <path d="M24 132 C43 125 53 126 62 125" fill="none" stroke="#69a946" stroke-width="2.2" stroke-linecap="round" opacity=".68"/>
  <path d="M86 121 C100 115 112 116 124 126" fill="none" stroke="#69a946" stroke-width="2.2" stroke-linecap="round" opacity=".68"/>
  <path d="M91 178 C109 160 120 169 115 188" fill="none" stroke="#5fa842" stroke-width="4" stroke-linecap="round"/>
  <path d="M41 190 C25 169 11 179 19 199" fill="none" stroke="#5fa842" stroke-width="4" stroke-linecap="round"/>
  <g filter="url(#stage3SoftGlow)">
    <path d="M81 8 L88 28 L108 36 L88 44 L80 65 L72 44 L52 36 L72 28Z" fill="#fffbd0"/>
    <path d="M82 8 L88 28 L108 36 L88 44 L80 65 L72 44 L52 36 L72 28Z" fill="#fff27b" opacity=".55"/>
  </g>
  <circle cx="38" cy="24" r="1.5" fill="#fff6a5"/>
  <circle cx="103" cy="25" r="1.7" fill="#fff6a5"/>
  <circle cx="113" cy="94" r="1.2" fill="#fff6a5"/>
  <circle cx="27" cy="107" r="1.2" fill="#fff6a5"/>
</svg>
