<svg xmlns="http://www.w3.org/2000/svg" viewBox="0 0 48 64" role="img" aria-label="grown sprout">
  <defs>
    <linearGradient id="leafA" x1="0" y1="0" x2="1" y2="1">
      <stop offset="0" stop-color="#7be66d"/>
      <stop offset="1" stop-color="#37a53f"/>
    </linearGradient>
    <linearGradient id="leafB" x1="0" y1="0" x2="1" y2="1">
      <stop offset="0" stop-color="#9bff7c"/>
      <stop offset="1" stop-color="#4fbe51"/>
    </linearGradient>
    <linearGradient id="stem" x1="0" y1="0" x2="0" y2="1">
      <stop offset="0" stop-color="#4fad4b"/>
      <stop offset="1" stop-color="#2f7a34"/>
    </linearGradient>
  </defs>

  <ellipse cx="24" cy="57" rx="14" ry="4.5" fill="#1f311f" opacity="0.2"/>
  <path d="M22 57 C22 47, 21 35, 24 24 C27 35, 26 47, 26 57 Z" fill="url(#stem)"/>

  <path d="M24 29 C16 17, 7 15, 5 24 C9 32, 18 35, 24 31 Z" fill="url(#leafA)"/>
  <path d="M24 27 C15 27, 8 32, 11 40 C19 43, 26 38, 27 31 Z" fill="url(#leafB)"/>
  <path d="M24 29 C32 17, 41 15, 43 24 C39 32, 30 35, 24 31 Z" fill="url(#leafA)"/>
  <path d="M24 27 C33 27, 40 32, 37 40 C29 43, 22 38, 21 31 Z" fill="url(#leafB)"/>

  <path d="M24 16 C20 10, 21 4, 24 2 C27 4, 28 10, 24 16 Z" fill="#7ce76f"/>
  <circle cx="24" cy="13" r="1.6" fill="#a8ff8d"/>
</svg>
