<svg xmlns="http://www.w3.org/2000/svg" viewBox="0 0 92 128" role="img" aria-label="stage 2 sprout">
  <defs>
    <radialGradient id="stage2Glow" cx="50%" cy="60%" r="55%">
      <stop offset="0%" stop-color="#f2ff96" stop-opacity=".52"/>
      <stop offset="100%" stop-color="#f2ff96" stop-opacity="0"/>
    </radialGradient>
    <linearGradient id="stage2Stem" x1="0" y1="0" x2="0" y2="1">
      <stop offset="0%" stop-color="#d8fb75"/>
      <stop offset="100%" stop-color="#4c9e42"/>
    </linearGradient>
    <linearGradient id="stage2Leaf" x1="0" y1="0" x2="1" y2="1">
      <stop offset="0%" stop-color="#fbff93"/>
      <stop offset="55%" stop-color="#aee057"/>
      <stop offset="100%" stop-color="#5da944"/>
    </linearGradient>
  </defs>
  <ellipse cx="46" cy="78" rx="43" ry="47" fill="url(#stage2Glow)"/>
  <path d="M42 114 C42 92 42 69 47 43" fill="none" stroke="#357b35" stroke-width="10" stroke-linecap="round"/>
  <path d="M47 114 C47 91 47 68 52 43" fill="none" stroke="url(#stage2Stem)" stroke-width="6" stroke-linecap="round"/>
  <path d="M49 45 C29 23 8 22 5 41 C20 55 39 58 49 45Z" fill="url(#stage2Leaf)" stroke="#ecff83" stroke-width="2.5"/>
  <path d="M52 45 C69 20 91 19 87 40 C72 55 59 57 52 45Z" fill="url(#stage2Leaf)" stroke="#ecff83" stroke-width="2.5"/>
  <path d="M45 75 C31 62 17 65 15 78 C27 86 38 85 45 75Z" fill="url(#stage2Leaf)" stroke="#dfff7b" stroke-width="2"/>
  <path d="M51 73 C64 60 78 62 78 75 C67 84 56 84 51 73Z" fill="url(#stage2Leaf)" stroke="#dfff7b" stroke-width="2"/>
  <path d="M15 42 C28 38 38 39 48 45" fill="none" stroke="#6cac45" stroke-width="2" stroke-linecap="round" opacity=".72"/>
  <path d="M59 45 C69 39 77 38 86 40" fill="none" stroke="#6cac45" stroke-width="2" stroke-linecap="round" opacity=".72"/>
  <path d="M24 77 C32 74 39 74 45 77" fill="none" stroke="#6cac45" stroke-width="1.8" stroke-linecap="round" opacity=".65"/>
  <path d="M57 75 C64 72 70 72 77 75" fill="none" stroke="#6cac45" stroke-width="1.8" stroke-linecap="round" opacity=".65"/>
  <circle cx="36" cy="16" r="1.5" fill="#fff6a5"/>
  <circle cx="60" cy="20" r="1.2" fill="#fff6a5"/>
  <circle cx="23" cy="30" r="1" fill="#fff6a5"/>
</svg>
