<svg xmlns="http://www.w3.org/2000/svg" viewBox="0 0 74 96" fill="#ffffff" aria-hidden="true">
  <!-- Seated pose: head, compact torso, bent legs  matches standing player blob style -->
  <circle cx="37" cy="17" r="14"/>
  <path d="M24 30 C22 44 24 52 37 54 C50 52 52 44 50 30 C48 26 42 24 37 24 C32 24 26 26 24 30 Z"/>
  <ellipse cx="20" cy="42" rx="7" ry="9"/>
  <ellipse cx="54" cy="42" rx="7" ry="9"/>
  <path d="M27 52 C24 58 22 68 24 78 C25 84 30 88 37 88 C44 88 49 84 50 78 C52 68 50 58 47 52 C44 50 40 49 37 49 C34 49 30 50 27 52 Z"/>
  <ellipse cx="30" cy="82" rx="9" ry="7"/>
  <ellipse cx="44" cy="82" rx="9" ry="7"/>
</svg>
