<svg xmlns="http://www.w3.org/2000/svg" viewBox="0 0 64 48" shape-rendering="geometricPrecision">
  <filter id="shadow" x="-20%" y="-20%" width="140%" height="140%">
    <feDropShadow dx="0" dy="2" stdDeviation="1.4" flood-color="#000000" flood-opacity=".35"/>
  </filter>
  <g filter="url(#shadow)">
    <ellipse cx="32" cy="36" rx="28" ry="8" fill="#8a6b33"/>
    <path d="M8 35l7-6 9 2 8-5 9 5 8-2 7 5-5 7-16 3-18-2z" fill="#9a742f"/>
    <path d="M12 34l7-3 6 3 7-4 8 4 8-3 5 4-8 4-27 2z" fill="#b58a3d"/>
    <path d="M13 31c2-4 5-6 9-6 3-8 10-13 20-11 7 2 12 8 12 16 0 7-5 12-14 13H23c-7 0-12-4-10-12z" fill="#555653"/>
    <path d="M22 25c3-7 9-11 18-10 4 1 8 3 10 7l-12 3-6 9z" fill="#6f706a"/>
    <path d="M31 16l9 1 5 5-13 2-9-1z" fill="#b9b7aa" opacity=".8"/>
    <path d="M21 27l10 7-3 8h-6c-6-1-8-4-7-9z" fill="#444642"/>
    <path d="M39 25l12-3c2 3 3 7 1 11l-9 1z" fill="#3f413e"/>
    <path d="M31 34l8-9 4 9-5 8h-10z" fill="#5f605b"/>
    <path d="M17 39c3 1 7 2 11 2" stroke="#222" stroke-opacity=".28" stroke-width="2" fill="none"/>
    <path d="M18 33l8 3" stroke="#c8c5b8" stroke-opacity=".55" stroke-width="2" fill="none"/>
    <path d="M31 18l-6 5 9 2" stroke="#e4e0ce" stroke-opacity=".42" stroke-width="2" fill="none"/>
    <path d="M7 35c5-2 8-1 11 2M46 39c4-3 8-3 11-1" stroke="#5f7e23" stroke-width="3" stroke-linecap="round"/>
    <path d="M11 33c3 0 5 1 7 3M49 36c3-2 5-2 8-1" stroke="#8aaa2b" stroke-width="2" stroke-linecap="round"/>
  </g>
</svg>
