<svg xmlns="http://www.w3.org/2000/svg" viewBox="0 0 64 82" role="img" aria-label="stage 1 sprout">
  <defs>
    <radialGradient id="stage1Glow" cx="50%" cy="54%" r="52%">
      <stop offset="0%" stop-color="#f5ff9e" stop-opacity=".55"/>
      <stop offset="100%" stop-color="#f5ff9e" stop-opacity="0"/>
    </radialGradient>
    <linearGradient id="stage1Stem" x1="0" y1="0" x2="0" y2="1">
      <stop offset="0%" stop-color="#bdf066"/>
      <stop offset="100%" stop-color="#4ea344"/>
    </linearGradient>
    <linearGradient id="stage1Leaf" x1="0" y1="0" x2="1" y2="1">
      <stop offset="0%" stop-color="#f6ff8a"/>
      <stop offset="55%" stop-color="#a9df56"/>
      <stop offset="100%" stop-color="#5fae45"/>
    </linearGradient>
  </defs>
  <ellipse cx="32" cy="54" rx="29" ry="25" fill="url(#stage1Glow)"/>
  <path d="M31 70 C30 55 30 45 33 33" fill="none" stroke="#3e873b" stroke-width="7" stroke-linecap="round"/>
  <path d="M34 70 C33 55 33 45 36 33" fill="none" stroke="url(#stage1Stem)" stroke-width="4" stroke-linecap="round"/>
  <path d="M34 34 C18 20 5 24 8 37 C20 43 30 42 34 34Z" fill="url(#stage1Leaf)" stroke="#eaff82" stroke-width="2"/>
  <path d="M35 34 C49 18 61 21 58 36 C47 43 39 42 35 34Z" fill="url(#stage1Leaf)" stroke="#eaff82" stroke-width="2"/>
  <path d="M13 35 C21 32 27 32 33 35" fill="none" stroke="#6eaf46" stroke-width="1.8" stroke-linecap="round" opacity=".7"/>
  <path d="M40 35 C46 32 52 31 57 35" fill="none" stroke="#6eaf46" stroke-width="1.8" stroke-linecap="round" opacity=".7"/>
  <circle cx="23" cy="17" r="1.5" fill="#fff7a8"/>
  <circle cx="48" cy="16" r="1.2" fill="#fff7a8"/>
</svg>
